<svg xmlns="http://www.w3.org/2000/svg" viewBox="0 0 96 96" role="img" aria-label="取关狗">
  <defs>
    <linearGradient id="bg" x1="12" y1="8" x2="82" y2="88" gradientUnits="userSpaceOnUse">
      <stop stop-color="#FFB44C"/>
      <stop offset="1" stop-color="#E96921"/>
    </linearGradient>
  </defs>
  <rect x="4" y="4" width="88" height="88" rx="26" fill="url(#bg)"/>
  <path d="M29 35 18 24c-3-3-7-1-7 3v23c0 6 4 11 10 12l8-27Z" fill="#6D371D"/>
  <path d="m67 35 11-11c3-3 7-1 7 3v23c0 6-4 11-10 12l-8-27Z" fill="#6D371D"/>
  <path d="M23 49c0-18 10-29 25-29s25 11 25 29v13c0 15-10 24-25 24S23 77 23 62V49Z" fill="#FFF4E5"/>
  <circle cx="38" cy="50" r="4" fill="#302018"/>
  <circle cx="58" cy="50" r="4" fill="#302018"/>
  <path d="M42 61c0-4 3-6 6-6s6 2 6 6c0 3-3 6-6 6s-6-3-6-6Z" fill="#302018"/>
  <path d="M34 70c8 7 20 7 28 0" fill="none" stroke="#E05A37" stroke-width="4" stroke-linecap="round"/>
  <path d="M69 69h17" stroke="#FFF" stroke-width="6" stroke-linecap="round"/>
</svg>
